<?xml version="1.0" encoding="UTF-8" standalone="no"?>
<svg
   xmlns:osb="http://www.openswatchbook.org/uri/2009/osb"
   xmlns:dc="http://purl.org/dc/elements/1.1/"
   xmlns:cc="http://creativecommons.org/ns#"
   xmlns:rdf="http://www.w3.org/1999/02/22-rdf-syntax-ns#"
   xmlns:svg="http://www.w3.org/2000/svg"
   xmlns="http://www.w3.org/2000/svg"
   xmlns:xlink="http://www.w3.org/1999/xlink"
   id="svg8"
   version="1.1"
   viewBox="0 0 12.962514 12.962517"
   height="12.962517mm"
   width="12.962514mm">
  <title
     id="title856">Aura Icon</title>
  <defs
     id="defs2">
    <linearGradient
       osb:paint="solid"
       id="linearGradient848">
      <stop
         id="stop846"
         offset="0"
         style="stop-color:#000000;stop-opacity:1;" />
    </linearGradient>
    <clipPath
       id="clipPath842"
       clipPathUnits="userSpaceOnUse">
      <use
         height="100%"
         width="100%"
         id="use844"
         xlink:href="#g838"
         y="0"
         x="0" />
    </clipPath>
  </defs>
  <metadata
     id="metadata5">
    <rdf:RDF>
      <cc:Work
         rdf:about="">
        <dc:format>image/svg+xml</dc:format>
        <dc:type
           rdf:resource="http://purl.org/dc/dcmitype/StillImage" />
        <dc:title>Aura Icon</dc:title>
      </cc:Work>
    </rdf:RDF>
  </metadata>
  <g
     transform="translate(-43.230988,-26.122542)"
     id="layer1">
    <g
       clip-path="url(#clipPath842)"
       id="g840">
      <g
         id="g838">
        <g
           id="g854">
          <path
             style="fill:#000000;fill-opacity:1;stroke:#000000;stroke-width:0.26458332px;stroke-linecap:butt;stroke-linejoin:miter;stroke-opacity:1"
             d="m 49.578403,26.122542 -1.503267,2.672707 -2.572452,-1.036113 0.267166,3.040642 -2.538862,0.901753 2.305285,1.904277 -1.670698,2.572451 h 2.906797 l 0.600999,2.873211 2.271694,-1.904277 2.372465,1.937866 0.400492,-2.873208 2.973464,0.03307 -1.569931,-2.605527 2.371947,-2.004528 -2.672704,-0.802018 0.233579,-2.973462 -2.605527,0.968933 z m 0.133842,2.70578 a 3.9088168,3.9422255 0 0 1 3.908806,3.942395 3.9088168,3.9422255 0 0 1 -3.908806,3.942395 3.9088168,3.9422255 0 0 1 -3.908806,-3.942395 3.9088168,3.9422255 0 0 1 3.908806,-3.942395 z"
             id="path21" />
        </g>
      </g>
    </g>
  </g>
</svg>
